<svg width="25" height="25" viewBox="0 0 25 25" fill="none" xmlns="http://www.w3.org/2000/svg">
<path d="M23.6344 2.16737C20.6049 1.40947 18.323 1.78842 16.2771 2.11684C14.9 2.34421 13.5623 2.54632 11.9885 2.42V1.35895C11.9885 0.878947 11.3984 0.5 10.6508 0.5C9.90328 0.5 9.35246 0.878947 9.35246 1.35895V19.8516C9.35246 20.3316 9.94263 20.7105 10.6902 20.7105C11.4377 20.7105 12.0279 20.3316 12.0279 19.8516V10.2263C12.3426 10.2516 12.6967 10.2768 12.9721 10.2768C14.4672 10.2768 15.7262 10.0747 16.9459 9.87263C18.8344 9.56947 20.4475 9.31684 22.6902 9.87263C23.0836 9.97368 23.5557 9.94842 23.9098 9.77158C24.2639 9.62 24.5 9.34211 24.5 9.06421V3.00105C24.5 2.62211 24.1459 2.29368 23.6344 2.16737ZM21.8246 7.92737C19.6607 7.67474 17.8902 7.95263 16.3164 8.20526C14.9393 8.43263 13.6016 8.63474 12.0279 8.50842V4.13789C13.9164 4.26421 15.5295 4.01158 16.9459 3.78421C18.559 3.53158 20.0148 3.30421 21.8246 3.60737V7.92737Z" fill="black"/>
<path d="M19.5033 16.6937H14.3492V18.4116H18.1656V22.7821H3.17541V18.4116H6.9918V16.6937H1.8377C1.09016 16.6937 0.5 17.0726 0.5 17.5526V23.6411C0.5 24.1211 1.09016 24.5 1.8377 24.5H19.5033C20.2508 24.5 20.841 24.1211 20.841 23.6411V17.5526C20.841 17.0726 20.2508 16.6937 19.5033 16.6937Z" fill="black"/>
</svg>
