<svg width="23" height="19" viewBox="0 0 23 19" fill="none" xmlns="http://www.w3.org/2000/svg">
<path d="M9.5225 4.02682H12.7554C13.3901 4.02682 13.967 4.23386 14.3842 4.56767L14.4041 4.58491C14.8092 4.91736 15.0603 5.37158 15.0603 5.87048V9.02536C15.0603 9.18432 14.899 9.31336 14.7003 9.31336H7.57763C7.37892 9.31336 7.21763 9.18432 7.21763 9.02536V5.87048C7.21763 5.36342 7.477 4.90261 7.8937 4.5688C8.31096 4.23386 8.88782 4.02682 9.5225 4.02682ZM20.2324 14.9673C20.7971 14.9673 21.309 15.1507 21.679 15.4467C22.0489 15.7426 22.2782 16.1519 22.2782 16.6037C22.2782 17.0554 22.0489 17.4647 21.679 17.7607C21.309 18.0566 20.7971 18.2401 20.2324 18.2401C19.6678 18.2401 19.1561 18.0568 18.7862 17.7609C18.4163 17.465 18.1869 17.0554 18.1869 16.6037C18.1869 16.1519 18.4163 15.7426 18.7862 15.4467C19.1561 15.1507 19.6678 14.9673 20.2324 14.9673ZM11.1391 14.9673C11.7038 14.9673 12.2157 15.1507 12.5856 15.4467C12.9556 15.7426 13.1846 16.1519 13.1846 16.6037C13.1846 17.0554 12.9556 17.465 12.5856 17.7609C12.2157 18.0568 11.7038 18.2401 11.1391 18.2401C10.5744 18.2401 10.0625 18.0568 9.69258 17.7609C9.32266 17.465 9.09361 17.0554 9.09361 16.6037C9.09361 16.1519 9.32266 15.7426 9.69258 15.4467C10.0625 15.1507 10.5744 14.9673 11.1391 14.9673ZM2.04578 14.9673C2.61045 14.9673 3.1221 15.1507 3.49203 15.4467C3.86195 15.7426 4.09128 16.1519 4.09128 16.6037C4.09128 17.0554 3.86195 17.465 3.49203 17.7609C3.1221 18.0568 2.61045 18.2401 2.04578 18.2401C1.48111 18.2401 0.969173 18.0566 0.599249 17.7607C0.229325 17.4647 0 17.0554 0 16.6037C0 16.1519 0.229325 15.7426 0.599249 15.4467C0.969173 15.1507 1.48111 14.9673 2.04578 14.9673ZM20.4116 11.5484C20.5193 11.5979 20.593 11.6915 20.593 11.7983V14.1917C20.593 14.3507 20.4317 14.4797 20.233 14.4797C20.0343 14.4797 19.873 14.3507 19.873 14.1917V12.0863H11.4991V14.2677C11.4991 14.4266 11.3378 14.5557 11.1391 14.5557C10.9404 14.5557 10.7791 14.4266 10.7791 14.2677V12.0863H2.40578V14.1917C2.40578 14.3507 2.24449 14.4797 2.04578 14.4797C1.84707 14.4797 1.68578 14.3507 1.68578 14.1917V11.802C1.68578 11.6394 1.84707 11.5103 2.0506 11.5103H10.7791V10.0511C10.7791 9.89208 10.9404 9.76305 11.1391 9.76305C11.3378 9.76305 11.4991 9.89208 11.4991 10.0511V11.5103L20.4116 11.5484ZM11.1391 0C11.7548 0 12.3135 0.200014 12.7197 0.524754C13.1251 0.849493 13.3748 1.29624 13.3748 1.78856C13.3748 2.28134 13.1245 2.72876 12.7192 3.0526C12.3158 3.37666 11.7565 3.57712 11.1391 3.57712C10.5217 3.57712 9.96244 3.37666 9.55822 3.05328L9.53837 3.03604C9.14521 2.71334 8.90341 2.27295 8.90341 1.78856C8.90341 1.29601 9.15343 0.84904 9.55935 0.524073C9.96527 0.199787 10.5237 0 11.1391 0Z" fill="black"/>
</svg>
