<svg width="24" height="25" viewBox="0 0 24 25" fill="none" xmlns="http://www.w3.org/2000/svg">
<path d="M22.9437 20.7949C23.7699 19.2562 24.1309 17.437 23.9633 15.644C23.7852 13.7391 23.0117 11.942 21.7871 10.5851C20.0245 8.63219 17.5071 7.77781 15.0804 8.26342C14.8835 6.46767 14.1651 4.72763 12.924 3.3528C9.97202 0.0832884 5.17063 0.0832884 2.21974 3.3528C0.995105 4.70968 0.222823 6.50676 0.0435074 8.41168C-0.124074 10.2048 0.236872 12.0239 1.06189 13.564L0.644695 16.2128C0.61188 16.4193 0.672821 16.6309 0.806417 16.779C0.940014 16.927 1.12986 16.9932 1.31736 16.9581L3.70807 16.4959C4.87528 17.2633 6.22064 17.6684 7.57998 17.6684C7.83897 17.6684 8.09915 17.6541 8.35815 17.6242C8.54799 17.6022 8.73667 17.5723 8.923 17.5347C9.12574 19.3888 9.87811 21.1093 11.084 22.4453C12.3086 23.8022 13.9306 24.6578 15.6498 24.8565C15.9088 24.8864 16.169 24.9007 16.4292 24.9007C17.7886 24.9007 19.1327 24.4955 20.2987 23.7282L22.6905 24.1904C22.8769 24.2268 23.0679 24.1593 23.2015 24.0112C23.3351 23.8632 23.3949 23.6516 23.3632 23.4451L22.9449 20.7949L22.9437 20.7949ZM7.55539 16.3723C6.3706 16.3723 5.17993 16.0139 4.1347 15.2764C4.04094 15.2101 3.93313 15.1764 3.82296 15.1764C3.79014 15.1764 3.75616 15.1803 3.72334 15.1855L1.93031 15.5322L2.24322 13.5455C2.26783 13.3871 2.23853 13.2248 2.16119 13.0897C0.563881 10.3084 0.934212 6.5962 3.04012 4.26271C5.53745 1.4957 9.60281 1.4957 12.1013 4.26271C14.5986 7.03102 14.5986 11.5354 12.1013 14.3024C10.8719 15.6658 9.21822 16.3723 7.55539 16.3723ZM21.8433 20.3196C21.7648 20.4546 21.7367 20.6182 21.7613 20.7766L22.0754 22.7646L20.2812 22.4179C20.1382 22.3906 19.9917 22.4231 19.8698 22.5088C17.3607 24.2786 14.0115 23.8683 11.9043 21.5336C10.8461 20.3611 10.1991 18.8367 10.0574 17.2021C11.1285 16.7878 12.1129 16.11 12.9227 15.2115C14.3337 13.6482 15.0696 11.6149 15.1306 9.56195C17.2341 9.08022 19.4351 9.79956 20.9654 11.4941C23.0725 13.8287 23.4418 17.5397 21.8433 20.3196ZM18.8538 15.0712C18.8538 16.1775 18.2268 17.1851 17.294 17.5786C17.1182 17.6526 17.0139 17.8201 17.0139 18.0278V18.3745C17.0139 18.7303 16.7537 19.0173 16.4338 19.0173C16.1139 19.0173 15.8537 18.729 15.8537 18.3745V18.0278C15.8537 17.2864 16.258 16.6385 16.8826 16.3762C17.3666 16.1723 17.6924 15.6477 17.6924 15.0725C17.6924 14.3038 17.1276 13.678 16.4338 13.678C15.74 13.678 15.1752 14.3038 15.1752 15.0725C15.1752 15.4283 14.915 15.7153 14.5951 15.7153C14.2751 15.7153 14.015 15.427 14.015 15.0725C14.015 13.5936 15.1002 12.3912 16.435 12.3912C17.7686 12.3912 18.855 13.5936 18.855 15.0725L18.8538 15.0712ZM17.0139 19.9948C17.0139 20.3493 16.7537 20.6376 16.4338 20.6376C16.1139 20.6376 15.8537 20.3493 15.8537 19.9948C15.8537 19.6403 16.1139 19.3508 16.4338 19.3508C16.7537 19.3508 17.0139 19.639 17.0139 19.9948ZM11.6383 9.28238C11.6383 9.63815 11.3782 9.92512 11.0582 9.92512H4.10163C3.78054 9.92512 3.52154 9.63686 3.52154 9.28238C3.52154 8.9279 3.7817 8.63964 4.10163 8.63964H11.0582C11.3793 8.63964 11.6383 8.9279 11.6383 9.28238ZM11.6383 6.94254C11.6383 7.29832 11.3782 7.58528 11.0582 7.58528H4.08543C3.76433 7.58528 3.50534 7.29702 3.50534 6.94254C3.50534 6.58806 3.7655 6.2998 4.08543 6.2998H11.0582C11.3793 6.2998 11.6383 6.58806 11.6383 6.94254ZM11.6383 11.6221C11.6383 11.9779 11.3782 12.2649 11.0582 12.2649H10.4324C10.1113 12.2649 9.85235 11.9766 9.85235 11.6221C9.85235 11.2677 10.1125 10.9794 10.4324 10.9794H11.0582C11.3793 10.9794 11.6383 11.2677 11.6383 11.6221ZM8.74139 11.6221C8.74139 11.9779 8.48122 12.2649 8.16129 12.2649H4.10187C3.78078 12.2649 3.52178 11.9766 3.52178 11.6221C3.52178 11.2677 3.78194 10.9794 4.10187 10.9794H8.16129C8.48239 10.9794 8.74139 11.2677 8.74139 11.6221Z" fill="black"/>
</svg>
