<svg width="22" height="12" viewBox="0 0 22 12" fill="none" xmlns="http://www.w3.org/2000/svg">
<path d="M7.95698 8.51971C7.32882 8.5603 6.70123 8.46642 6.13939 8.25416C5.86245 8.14961 5.60109 8.01604 5.36326 7.85572C5.35362 7.85005 5.34399 7.8437 5.33548 7.83667C5.018 7.61783 4.74304 7.35024 4.53072 7.03933L4.25774 6.63953L4.00631 7.41646C3.97314 7.51873 3.84246 7.58019 3.71462 7.55365L2.59124 7.32053L2.88945 7.7573C3.00567 7.9276 3.13436 8.08952 3.27411 8.24236C3.28177 8.24939 3.28885 8.25688 3.29736 8.26754C3.78237 8.79025 4.39522 9.20615 5.08121 9.50186C5.99766 9.89645 7.04649 10.0776 8.09702 10.0117C7.95443 9.72569 7.87619 9.41388 7.87619 9.08732C7.87619 8.89207 7.90426 8.70203 7.95698 8.51971ZM2.6417 8.17615C2.58189 8.09927 2.52434 8.02058 2.46935 7.94008L1.91035 7.1212C1.87917 7.07902 1.86812 7.02731 1.88484 6.97606C1.91801 6.87379 2.04869 6.81233 2.17653 6.83886L3.60322 7.13503L3.94621 6.07532C3.96237 6.02588 4.00319 5.98166 4.06357 5.95535C4.1795 5.90501 4.32492 5.93925 4.38785 6.032L4.95082 6.85655C5.04408 6.9933 5.15123 7.11984 5.27028 7.23662C5.34654 6.64134 5.68245 6.10525 6.18503 5.70318C6.33215 5.58549 6.49373 5.47913 6.66749 5.38593C6.58075 5.34692 6.48919 5.31336 6.39423 5.28547C6.19665 5.22764 5.98179 5.19566 5.75785 5.19566H2.06286C1.55092 5.19566 1.0849 5.36348 0.747289 5.63356C0.409113 5.90297 0.199915 6.27579 0.199915 6.68602C0.199915 7.09557 0.409964 7.46839 0.747289 7.73825C1.0849 8.00833 1.55092 8.17615 2.06286 8.17615H2.6417ZM5.73715 7.60604C5.92509 7.72577 6.12891 7.82669 6.34349 7.90765C6.8903 8.11424 7.50882 8.19157 8.11913 8.11945C8.2773 7.81852 8.50691 7.5473 8.79888 7.31441C9.37006 6.86358 10.1453 6.58828 10.9997 6.58828C11.8617 6.58828 12.6427 6.86834 13.2076 7.32008C13.4922 7.5473 13.7221 7.8183 13.8806 8.11945C14.4909 8.19157 15.1094 8.11424 15.6565 7.90765C15.8705 7.82691 16.0732 7.72623 16.2609 7.60695L16.2662 7.49515C16.2662 6.90327 15.9632 6.36491 15.4757 5.97486C15.2761 5.81476 15.0451 5.67914 14.778 5.57029C14.4135 5.4238 14.0062 5.34216 13.5753 5.34216H8.42527C7.68542 5.34216 7.01247 5.58458 6.52463 5.97486C6.03706 6.36491 5.73404 6.90327 5.73404 7.49515L5.73715 7.60604ZM16.73 7.2364C16.8491 7.11984 16.9559 6.99307 17.0492 6.85655L17.6121 6.032C17.6751 5.93925 17.8205 5.90501 17.9364 5.95535C17.9968 5.98166 18.0376 6.02588 18.0535 6.07532L18.3968 7.13503L19.8235 6.83886C19.9513 6.81233 20.082 6.87379 20.1152 6.97606C20.1319 7.02731 20.1208 7.07902 20.0896 7.1212L19.5306 7.94008C19.4757 8.02058 19.4184 8.09927 19.3583 8.17615H19.9371C20.4494 8.17615 20.9157 8.00856 21.2533 7.7387C21.5906 7.46861 21.8001 7.0958 21.8001 6.68602C21.8001 6.28123 21.5957 5.91272 21.2592 5.63855C20.9151 5.36348 20.4491 5.19566 19.9371 5.19566H16.2422C16.0182 5.19566 15.8031 5.22764 15.6055 5.28547C15.5105 5.31336 15.4192 5.34715 15.3322 5.38638C15.5057 5.47936 15.6673 5.58571 15.8147 5.70364C16.3176 6.10525 16.6537 6.64112 16.73 7.2364ZM13.9024 10.0117C14.9529 10.0776 16.0023 9.89668 16.9188 9.50186C17.5949 9.21046 18.2001 8.80227 18.6808 8.29112C18.6953 8.26504 18.7165 8.24168 18.7432 8.22332C18.8761 8.07614 18.9991 7.92057 19.1106 7.7573L19.4088 7.32053L18.2854 7.55365C18.1575 7.58019 18.0269 7.51873 17.9937 7.41646L17.7423 6.63953L17.4693 7.03933C17.0931 7.59062 16.5214 8.00471 15.8606 8.25416C15.2982 8.46642 14.6709 8.56053 14.0427 8.51971C14.0955 8.70203 14.1235 8.89207 14.1235 9.08732C14.1235 9.41388 14.045 9.72569 13.9024 10.0117ZM11.2069 7.67158L11.7413 8.4095L12.7836 8.58819C12.9128 8.60996 12.9956 8.71201 12.9684 8.81542C12.9588 8.85148 12.9372 8.883 12.9074 8.90794L12.1999 9.53837L12.3096 10.3872C12.3229 10.4922 12.2271 10.5865 12.0959 10.5972C12.0531 10.6006 12.0117 10.5949 11.9751 10.5818L11 10.2362L10.0246 10.5822C9.90355 10.6248 9.76182 10.5809 9.70852 10.484C9.68925 10.4491 9.68415 10.4119 9.69123 10.3768L9.7998 9.53815L9.08745 8.90318C8.99957 8.82472 9.00808 8.70362 9.10616 8.63332C9.13847 8.61019 9.17646 8.59545 9.21614 8.58887L10.2579 8.40972L10.7925 7.67158C10.8585 7.58019 11.0054 7.54889 11.1196 7.60173C11.1573 7.61919 11.1865 7.64346 11.2069 7.67158ZM11.3801 8.67505L10.9997 8.14961L10.6219 8.67142C10.5895 8.71882 10.5326 8.75487 10.4614 8.76689L9.7193 8.89411L10.2179 9.33881C10.267 9.37805 10.2944 9.43406 10.2868 9.49347L10.2086 10.0974L10.9033 9.85087C10.9629 9.83001 11.0326 9.82842 11.0967 9.85087L11.7909 10.0971L11.7126 9.49302C11.7058 9.44109 11.7257 9.38712 11.7727 9.34539L12.2796 8.89388L11.5377 8.76666C11.4737 8.75555 11.4153 8.7238 11.3801 8.67505ZM12.8695 7.59152C12.3915 7.20918 11.7302 6.97243 10.9997 6.97243C10.276 6.97243 9.62008 7.2051 9.13677 7.58631C8.65233 7.97432 8.35639 8.50338 8.35639 9.08732C8.35639 9.67126 8.65233 10.2001 9.13054 10.5827C9.60874 10.9652 10.2698 11.202 10.9997 11.202C11.7296 11.202 12.391 10.9652 12.8692 10.5827C13.3474 10.2006 13.6433 9.67149 13.6433 9.08732C13.6433 8.50338 13.3474 7.97432 12.8695 7.59152ZM19.4073 1.90586C19.0706 1.63645 18.6046 1.46978 18.0895 1.46978C17.5753 1.46978 17.1093 1.63668 16.7722 1.90631C16.4349 2.17527 16.2266 2.54808 16.2266 2.96013C16.2266 3.36719 16.4298 3.7357 16.7654 4.00896C17.1093 4.28358 17.5753 4.45049 18.0895 4.45049C18.6046 4.45049 19.0706 4.28381 19.4068 4.01485C19.7441 3.74499 19.9524 3.37218 19.9524 2.96013C19.9524 2.54808 19.7441 2.17527 19.4073 1.90586ZM5.22776 1.90631C4.89072 1.63668 4.4247 1.46978 3.91021 1.46978C3.39515 1.46978 2.92913 1.63645 2.59294 1.90541C2.25562 2.17527 2.04727 2.54808 2.04727 2.96013C2.04727 3.37218 2.25562 3.74499 2.59181 4.01395C2.92913 4.28381 3.39515 4.45049 3.91021 4.45049C4.4247 4.45049 4.89072 4.28358 5.22776 4.01395C5.56481 3.74477 5.77344 3.37195 5.77344 2.96013C5.77344 2.55353 5.56991 2.18502 5.22776 1.90631ZM12.9035 0.62822C12.417 0.23885 11.7438 -0.00198364 11 -0.00198364C10.2562 -0.00198364 9.58295 0.23885 9.09709 0.627766C8.60981 1.01736 8.30877 1.55595 8.30877 2.151C8.30877 2.74084 8.6047 3.27535 9.09028 3.66834C9.5838 4.0627 10.257 4.30399 11 4.30399C11.743 4.30399 12.4162 4.0627 12.9029 3.67333C13.3902 3.28464 13.6912 2.74583 13.6912 2.151C13.6912 1.55595 13.3902 1.01736 12.9035 0.62822Z" fill="black"/>
</svg>
